<svg id="Layer_1" data-name="Layer 1" xmlns="http://www.w3.org/2000/svg" xmlns:xlink="http://www.w3.org/1999/xlink" viewBox="0 0 31 31"><defs><style>.cls-1,.cls-2{fill:#fff;}.cls-1,.cls-2,.cls-4{fill-rule:evenodd;}.cls-2{stroke:#e3e3e3;}.cls-3{mask:url(#mask);}.cls-4{fill:#dc4f42;}</style><mask id="mask" x="5.98" y="9.14" width="11.85" height="12.39" maskUnits="userSpaceOnUse"><g transform="translate(-0.5 -0.5)"><g id="mask-6"><polygon id="path-5" class="cls-1" points="18.34 9.64 6.48 9.64 6.48 22.03 18.34 22.03 18.34 9.64"/></g></g></mask></defs><title>fx_gplus</title><path class="cls-2" d="M1,16A15,15,0,1,1,16,31,15,15,0,0,1,1,16Z" transform="translate(-0.5 -0.5)"/><g id="Group-3"><g class="cls-3"><path class="cls-4" d="M6.5,15.53a6.05,6.05,0,0,1,10.07-4.35A21.48,21.48,0,0,1,15,12.8a3.9,3.9,0,0,0-4.7-.12,4,4,0,0,0-.16,6.18c1.84,1.71,5.31.86,5.82-1.76-1.15,0-2.31,0-3.46,0V15c1.92,0,3.85,0,5.78,0a7.3,7.3,0,0,1-1.09,4.79,5.89,5.89,0,0,1-6.88,1.87A6.19,6.19,0,0,1,6.5,15.53" transform="translate(-0.5 -0.5)"/></g></g><path id="Fill-4" class="cls-4" d="M22.06,13.17h1.72c0,.59,0,1.18,0,1.77h1.73v1.76l-1.73,0c0,.59,0,1.18,0,1.77H22.06c0-.59,0-1.18,0-1.77l-1.73,0V15h1.73c0-.59,0-1.18,0-1.77" transform="translate(-0.5 -0.5)"/></svg>