<svg id="Layer_1" data-name="Layer 1" xmlns="http://www.w3.org/2000/svg" viewBox="0 0 31 31"><defs><style>.cls-1{fill:#fff;stroke:#e3e3e3;fill-rule:evenodd;}.cls-2{isolation:isolate;}.cls-3{fill:#49b749;}</style></defs><title>fx_naver</title><path class="cls-1" d="M1,16A15,15,0,1,1,16,31,15,15,0,0,1,1,16Z" transform="translate(-0.5 -0.5)"/><g class="cls-2"><path class="cls-3" d="M9.74,10.46H14.1s4,6,4.07,6.14.13,0,.13,0a10.5,10.5,0,0,1-.38-2.82V10.46h4.34V21.54H17.92s-3.87-5.66-4-5.82-.13,0-.13,0a7.42,7.42,0,0,1,.28,2.22v3.6H9.74V10.46Z" transform="translate(-0.5 -0.5)"/></g></svg>