<svg id="Layer_1" data-name="Layer 1" xmlns="http://www.w3.org/2000/svg" viewBox="0 0 31 31"><defs><style>.cls-1{fill:#fff;stroke:#e3e3e3;fill-rule:evenodd;}.cls-2{fill:#31b44a;}</style></defs><title>fx_wechat</title><path class="cls-1" d="M1,16A15,15,0,1,1,16,31,15,15,0,0,1,1,16Z" transform="translate(-0.5 -0.5)"/><path class="cls-2" d="M24,18.05c0-2.22-2.14-4-4.78-4s-4.76,1.8-4.76,4,2.14,4,4.77,4a5.24,5.24,0,0,0,1.45-.19.65.65,0,0,1,.41,0l1.18.64a.09.09,0,0,0,.14-.11l-.23-.95a.36.36,0,0,1,.14-.38A3.81,3.81,0,0,0,24,18.05Zm-6.48-.53a.66.66,0,1,1,.65-.65A.65.65,0,0,1,17.49,17.52Zm3.22,0a.66.66,0,1,1,.65-.65A.65.65,0,0,1,20.71,17.52Z" transform="translate(-0.5 -0.5)"/><path class="cls-2" d="M14,18.06c0-2.46,2.33-4.46,5.22-4.46h.22C19,11.38,16.64,9.67,13.8,9.67,10.61,9.67,8,11.8,8,14.44a4.49,4.49,0,0,0,2.06,3.64.28.28,0,0,1,.1.26l-.44,1.54a.13.13,0,0,0,.19.15l1.7-1A.43.43,0,0,1,12,19a7.48,7.48,0,0,0,1.78.23,3,3,0,0,0,.41,0A3.55,3.55,0,0,1,14,18.06Zm1.71-5.87A.78.78,0,1,1,15,13a.78.78,0,0,1,.77-.77Zm-3.88,1.55a.78.78,0,0,1,0-1.55.78.78,0,0,1,0,1.55Z" transform="translate(-0.5 -0.5)"/></svg>