<svg id="Layer_1" data-name="Layer 1" xmlns="http://www.w3.org/2000/svg" viewBox="0 0 31 31"><defs><style>.cls-1{fill:#fff;stroke:#e3e3e3;fill-rule:evenodd;}.cls-2{fill:#e99423;}.cls-3{fill:#d52d2c;}.cls-4{fill:#010101;}</style></defs><title>fx_weibo</title><path class="cls-1" d="M1,16A15,15,0,1,1,16,31,15,15,0,0,1,1,16Z" transform="translate(-0.5 -0.5)"/><path class="cls-2" d="M24.28,13.47c.07.87-.08,1.91-.65,2-.94.09-.45-.95-.44-1.57a3,3,0,0,0-3-3c-.42,0-1.41.29-1.26-.61.07-.39.4-.39.74-.43A4,4,0,0,1,24.28,13.47Z" transform="translate(-0.5 -0.5)"/><path class="cls-3" d="M20.14,15.56c1.09.6,2.39.89,2.18,2.66a3.34,3.34,0,0,1-.57,1.35c-1.84,2.57-7.38,3.66-10.85,1.7-1.16-.66-2.36-1.62-2.17-3.53a6.79,6.79,0,0,1,2.35-4,7.65,7.65,0,0,1,3.61-2.22c1.62-.41,2.09.94,1.66,2.27.93-.07,2.91-1.11,3.79-.09A2,2,0,0,1,20.14,15.56ZM19,19.74a2.6,2.6,0,0,0,.7-1.69c0-2.17-2.73-3-4.88-2.79a6,6,0,0,0-2.79.83,3.16,3.16,0,0,0-1.65,2C9.9,20.26,12.26,21.28,14,21.4A6.36,6.36,0,0,0,19,19.74Z" transform="translate(-0.5 -0.5)"/><path class="cls-2" d="M22.14,13.47c.1.66-.09,1.24-.48,1.26-.63,0-.39-.43-.43-1a1.19,1.19,0,0,0-.57-.87c-.49-.23-1.26.17-1.26-.52,0-.52.44-.46.7-.48A1.87,1.87,0,0,1,22.14,13.47Z" transform="translate(-0.5 -0.5)"/><path class="cls-4" d="M17.05,17.83c.92,2.8-3.91,4.11-4.8,1.7-.59-1.62.83-2.9,2.31-3.05A2.24,2.24,0,0,1,17.05,17.83Zm-2.23.48a.33.33,0,0,0,.61-.18C15.39,17.82,14.82,17.87,14.82,18.31ZM14,19.79c.81-.19.92-1.73-.3-1.44C12.7,18.59,12.9,20.06,14,19.79Z" transform="translate(-0.5 -0.5)"/></svg>