<svg id="Icons" xmlns="http://www.w3.org/2000/svg" viewBox="0 0 128 128"><defs><style>.cls-1{fill:none;stroke:#fff;stroke-linecap:round;stroke-linejoin:round;stroke-width:3px;}</style></defs><rect class="cls-1" x="44.5" y="111.5" width="39" height="6"/><path class="cls-1" d="M104.5,16.5h22s.883,37.692-25,43"/><path class="cls-1" d="M23.5,16.5H1.5s.117,37.692,26,43"/><line class="cls-1" x1="78.5" y1="102.5" x2="74.5" y2="79.5"/><line class="cls-1" x1="53.5" y1="79.5" x2="49.5" y2="102.5"/><polygon class="cls-1" points="59.94 31.5 47.5 31.5 57.5 39.5 53.5 52 64 43 74.5 52 70.5 39.5 80.5 31.5 68.06 31.5 64 20.5 59.94 31.5"/><path class="cls-1" d="M104.5,40.5V1.5h-81v39s0,40,41,40C64.5,80.5,104.5,80.5,104.5,40.5Z"/><path class="cls-1" d="M33.5,102.5v24h61v-24Z"/></svg>